{"title":"Modus.Anomali.2012.Swesub.DVDRip.avi","uid":9628805,"size":733562880,"categoryP":"video","categoryS":"movies","magnet":"?xt=urn:btih:207c7ce8f02a5a54687f495d0bf4458e71f54925&amp;dn=Modus.Anomali.2012.Swesub.DVDRip.avi&amp;tr=udp%3A%2F%2Ftracker.openbittorrent.com%3A80&amp;tr=udp%3A%2F%2Fopen.demonii.com%3A1337&amp;tr=udp%3A%2F%2Ftracker.coppersurfer.tk%3A6969&amp;tr=udp%3A%2F%2Fexodus.desync.com%3A6969","seeders":1,"leechers":0,"uploader":null,"files":-1,"time":1392598277,"description":"\n\nSwedish Hardcoded sub\n &lt;a href=&quot;\nhttp://www.imdb.com/title/tt2182019/&quot; rel=&quot;nofollow&quot; target=&quot;_NEW&quot;&gt;\nhttp://www.imdb.com/title/tt2182019/&lt;/a&gt;\n\nGeneral\nComplete name                  : Modus.Anomali.2012.Swesub.DVDRip.avi\nFormat                         : AVI\nFormat/Info                    : Audio Video Interleave\nFile size                      : 700 MiB\nDuration                       : 1h 26mn\n\n\nVideo\nID                             : 0\nFormat                         : MPEG-4 Visual\nFormat profile                 : Advanced Simple@L5\nFormat settings, BVOP          : Yes\nFormat settings, QPel          : No\nFormat settings, GMC           : No warppoints\nFormat settings, Matrix        : Default (H.263)\nCodec ID                       : XVID\nDuration                       : 1h 26mn\nBit rate                       : 996 Kbps\nWidth                          : 672 pixels\nHeight                         : 304 pixels\nDisplay aspect ratio           : 2.2:1\nFrame rate                     : 23.976 fps\nColor space                    : YUV\nChroma subsampling             : 4:2:0\nBit depth                      : 8 bits\nScan type                      : Progressive\nCompression mode               : Lossy\nBits/(Pixel*Frame)             : 0.203\nStream size                    : 615 MiB (88%)\n\nAudio\nID                             : 1\nFormat                         : MPEG Audio\nFormat version                 : Version 1\nFormat profile                 : Layer 3\nMode                           : Joint stereo\nCodec ID                       : 55\nCodec ID/Hint                  : MP3\nDuration                       : 1h 26mn\nBit rate mode                  : Variable\nBit rate                       : 128 Kbps\nChannel count                  : 2 channels\nSampling rate                  : 48.0 KHz\nCompression mode               : Lossy\nStream size                    : 76.6 MiB (11%)\nAlignment                      : Aligned on interleaves\nInterleave, duration           : 24 ms (0.58 video frame)\nInterleave, preload duration   : 355 ms\nWriting library                : LAME3.90.\nEncoding settings              : -m j -V 4 -q 2 -lowpass 17.6 --abr 128\n\n","torrent":{"xt":"urn:btih:207c7ce8f02a5a54687f495d0bf4458e71f54925","amp;dn":"Modus.Anomali.2012.Swesub.DVDRip.avi","amp;tr":["udp%3A%2F%2Ftracker.openbittorrent.com%3A80","udp%3A%2F%2Fopen.demonii.com%3A1337","udp%3A%2F%2Ftracker.coppersurfer.tk%3A6969","udp%3A%2F%2Fexodus.desync.com%3A6969"],"infoHash":"207c7ce8f02a5a54687f495d0bf4458e71f54925","infoHashBuffer":{"type":"Buffer","data":[32,124,124,232,240,42,90,84,104,127,73,93,11,244,69,142,113,245,73,37]},"announce":[],"urlList":[]}}